HIERARCHY
ROOT root
{
	OFFSET	0	13.1	24.9
	CHANNELS 6  Xposition Yposition Zposition Xrotation Yrotation Zrotation
	JOINT spine_1
	{
		OFFSET	0	9.99999	0
		CHANNELS 3  Xrotation Yrotation Zrotation
		JOINT spine_2
		{
			OFFSET	0	112	-10
			CHANNELS 3  Xrotation Yrotation Zrotation
			JOINT spine_3
			{
				OFFSET	0	206.5	19.3
				CHANNELS 3  Xrotation Yrotation Zrotation
				JOINT spine_4
				{
					OFFSET	0	110.4	14.6
					CHANNELS 3  Xrotation Yrotation Zrotation
					JOINT neck_1
					{
						OFFSET	0	71.8	-50.3
						CHANNELS 3  Xrotation Yrotation Zrotation
						JOINT neck_2
						{
							OFFSET	0	86.2	-25.8
							CHANNELS 3  Xrotation Yrotation Zrotation
							JOINT head_ee
							{
								OFFSET	0	179.8	-8.7
								CHANNELS 3  Xrotation Yrotation Zrotation
								End Site
								{
									OFFSET	1	0	0
								}
							}
						}
					}
					JOINT left_clavicle
					{
						OFFSET	-43.2	22.4	-70.8
						CHANNELS 3  Xrotation Yrotation Zrotation
						JOINT left_shoulder
						{
							OFFSET	-93.9	-5.79999	48.7
							CHANNELS 3  Xrotation Yrotation Zrotation
							JOINT left_elbow
							{
								OFFSET	-291.4	-30.8	15.2
								CHANNELS 3  Xrotation Yrotation Zrotation
								JOINT left_lowarm_twist
								{
									OFFSET	-110.7	-3.89999	13.6
									CHANNELS 3  Xrotation Yrotation Zrotation
									JOINT left_hand
									{
										OFFSET	-110.7	-3.89999	13.6
										CHANNELS 3  Xrotation Yrotation Zrotation
										JOINT left_ee
										{
											OFFSET	-80.8	-5.10001	12.1
											CHANNELS 3  Xrotation Yrotation Zrotation
											End Site
											{
												OFFSET	1	0	0
											}
										}
									}
								}
							}
						}
					}
					JOINT right_clavicle
					{
						OFFSET	43.2	22.4	-70.8
						CHANNELS 3  Xrotation Yrotation Zrotation
						JOINT right_shoulder
						{
							OFFSET	93.9	-5.79999	48.7
							CHANNELS 3  Xrotation Yrotation Zrotation
							JOINT right_elbow
							{
								OFFSET	291.4	-30.8	15.2
								CHANNELS 3  Xrotation Yrotation Zrotation
								JOINT right_lowarm_twist
								{
									OFFSET	110.7	-3.89999	13.6
									CHANNELS 3  Xrotation Yrotation Zrotation
									JOINT right_hand
									{
										OFFSET	110.7	-3.89999	13.6
										CHANNELS 3  Xrotation Yrotation Zrotation
										JOINT right_ee
										{
											OFFSET	80.8	-5.10001	12.1
											CHANNELS 3  Xrotation Yrotation Zrotation
											End Site
											{
												OFFSET	1	0	0
											}
										}
									}
								}
							}
						}
					}
				}
			}
		}
	}
	JOINT left_hip
	{
		OFFSET	-82.8	-127.5	0.300001
		CHANNELS 3  Xrotation Yrotation Zrotation
		JOINT left_knee
		{
			OFFSET	-28.2	-396.7	2.2
			CHANNELS 3  Xrotation Yrotation Zrotation
			JOINT left_ankle
			{
				OFFSET	-11.7	-411.3	35.4
				CHANNELS 3  Xrotation Yrotation Zrotation
				JOINT left_toes
				{
					OFFSET	0	-60	-88.6
					CHANNELS 3  Xrotation Yrotation Zrotation
					JOINT left_foot_ee
					{
						OFFSET	-22.5	-16.5	-42.2
						CHANNELS 3  Xrotation Yrotation Zrotation
						End Site
						{
							OFFSET	1	0	0
						}
					}
				}
			}
		}
	}
	JOINT right_hip
	{
		OFFSET	82.8	-127.5	0.300001
		CHANNELS 3  Xrotation Yrotation Zrotation
		JOINT right_knee
		{
			OFFSET	28.2	-396.7	2.2
			CHANNELS 3  Xrotation Yrotation Zrotation
			JOINT right_ankle
			{
				OFFSET	11.7	-411.3	35.4
				CHANNELS 3  Xrotation Yrotation Zrotation
				JOINT right_toes
				{
					OFFSET	0	-60	-88.6
					CHANNELS 3  Xrotation Yrotation Zrotation
					JOINT right_foot_ee
					{
						OFFSET	22.5	-16.5	-42.2
						CHANNELS 3  Xrotation Yrotation Zrotation
						End Site
						{
							OFFSET	1	0	0
						}
					}
				}
			}
		}
	}
}
MOTION
Frames: 7
Frame Time: 0.02
3177.02 653.055 -1669.29 -0.68760896708 57.7819962408 8.63255640607 0.368988 -0.0717814 -1.58192 0.37038 0.029013 -1.58328 0.370048 0.351257 -1.54411 0.366735 0.103017 -1.5802 -16.324 12.069 10.9294 -16.2614 16.9428 14.4805 -0.0 0.0 -0.0 7.34869 16.2157 13.6119 -45.5039 -37.3123 65.4267 0.456816 -12.7511 0.051043 -2.48696 -0.0942378 0.303558 -1.25812 5.51346 -5.949 -0.0 0.0 -0.0 12.1973 21.8148 -24.2466 8.73447 28.7131 -54.9404 1.60891 38.5522 -0.562713 30.3364 -0.055834 3.82993 3.28248 -4.24522 -24.1653 0.0 0.0 0.0 17.17 -11.3363 -17.562 4.14479 -0.192738 -0.606596 -9.5078 2.59558 1.42454 -10.3127 0.0 0.0 -0.0 0.0 -0.0 -17.34 -20.7314 -1.59441 -9.59002 -0.274498 -1.44446 29.8338 28.9367 4.72331 -10.2843 0.0 0.0 0.0 0.0 0.0 
3159.4419166 651.327 -1669.26583542 -1.51759651278 57.8312434049 9.5872021028 0.441816 -0.0707906 -1.46753 0.443014 0.0227254 -1.46906 0.442817 0.319976 -1.43398 0.439958 0.0895155 -1.46651 -14.9894 13.3307 11.7862 -14.8787 18.5422 15.4759 -0.0 0.0 -0.0 7.46826 15.8043 13.841 -44.8121 -37.1381 64.9212 0.445852 -12.4547 0.0486508 -1.97693 -0.073837 0.241637 -1.5232 6.05243 -7.44983 -0.0 0.0 -0.0 12.1354 22.7333 -24.0241 8.00486 28.5178 -54.6648 1.65481 39.3399 -0.591565 31.0848 -0.0315547 3.92243 3.32125 -4.02514 -24.3657 0.0 0.0 0.0 16.582 -10.4533 -17.243 4.85071 -0.229925 -0.708479 -6.09021 1.27701 0.909948 -10.381 0.0 0.0 -0.0 0.0 -0.0 -16.8533 -20.6781 -0.791964 -9.24347 -0.268813 -1.39158 28.7338 29.8781 4.63882 -11.5354 0.0 0.0 0.0 0.0 0.0 
3159.44206849 651.327 -1669.21303282 -1.52488519368 58.0032934751 9.59580451891 0.441816 -0.0707906 -1.46753 0.443014 0.0227254 -1.46906 0.442817 0.319976 -1.43398 0.439958 0.0895155 -1.46651 -14.9894 13.3307 11.7862 -14.8787 18.5422 15.4759 -0.0 0.0 -0.0 7.46826 15.8043 13.841 -44.8121 -37.1381 64.9212 0.445852 -12.4547 0.0486508 -1.97693 -0.073837 0.241637 -1.5232 6.05243 -7.44983 -0.0 0.0 -0.0 12.1354 22.7333 -24.0241 8.00486 28.5178 -54.6648 1.65481 39.3399 -0.591565 31.0848 -0.0315547 3.92243 3.32125 -4.02514 -24.3657 0.0 0.0 0.0 16.582 -10.4533 -17.243 4.85071 -0.229925 -0.708479 -6.09021 1.27701 0.909948 -10.381 0.0 0.0 -0.0 0.0 -0.0 -16.8533 -20.6781 -0.791964 -9.24347 -0.268813 -1.39158 28.7338 29.8781 4.63882 -11.5354 0.0 0.0 0.0 0.0 0.0 
3145.61686931 651.491 -1670.99841532 -1.94293457649 58.5872855637 9.90625684257 0.590235 -0.101661 -1.37612 0.591289 -0.0138974 -1.37979 0.591946 0.262479 -1.35467 0.589387 0.0452608 -1.37912 -15.1631 13.6537 12.507 -15.0144 18.7829 16.278 -0.0 0.0 -0.0 7.56396 15.5096 14.0232 -43.9222 -37.1127 63.7735 0.459444 -12.822 0.0516248 -1.98325 -0.0740866 0.242406 -1.66021 6.42889 -8.17857 -0.0 0.0 -0.0 12.1048 23.2377 -23.9072 7.61226 28.3239 -54.7955 1.65634 39.3657 -0.592532 31.5737 -0.0150401 3.98269 3.31746 -4.13324 -24.3783 0.0 0.0 0.0 16.0 -9.57848 -16.911 5.63447 -0.272684 -0.821062 -4.19326 1.20211 0.624371 -10.0804 0.0 0.0 -0.0 0.0 -0.0 -16.429 -20.6779 -0.546576 -11.2926 -0.29778 -1.70466 28.1918 27.9157 4.4604 -12.1811 0.0 0.0 0.0 0.0 0.0 
3087.96508151 664.741 -1680.23157175 -2.28396670165 60.9201376357 10.4211989307 0.817118 -0.384056 -1.11666 0.817757 -0.312227 -1.13883 0.824264 -0.0828864 -1.17794 0.822427 -0.267867 -1.15007 -18.0183 13.3923 13.1927 -17.9185 18.6675 17.3558 -0.0 0.0 -0.0 7.14179 14.5696 13.384 -42.1858 -37.0033 60.0356 0.494877 -13.7745 0.0597753 -2.29393 -0.0864523 0.280145 -2.06808 6.37904 -10.9036 -0.0 0.0 -0.0 12.0676 24.2977 -23.7182 3.2047 26.8991 -54.7799 1.54187 37.3699 -0.521471 32.8215 0.0294352 4.13583 3.09563 -1.7199 -21.8537 0.0 0.0 0.0 12.7513 -7.4561 -14.921 6.64299 -0.32997 -0.965068 3.60001 -0.556097 -0.528213 -7.66807 0.0 0.0 -0.0 0.0 -0.0 -12.7372 -19.1317 2.40043 -21.5043 -0.27473 -3.26923 23.9723 26.3526 3.82946 -13.2551 0.0 0.0 0.0 0.0 0.0 
3029.03730819 677.69 -1676.32193601 -2.10015506708 57.1389855555 8.88728503348 0.850655 -0.27096 -1.02345 0.851214 -0.205289 -1.03862 0.855152 0.00177695 -1.05871 0.853626 -0.165439 -1.04571 -21.2863 12.757 13.2164 -21.2914 18.2617 17.8032 -0.0 0.0 -0.0 8.98063 11.492 16.833 -37.5601 -36.5449 55.6002 0.374083 -10.4986 0.034369 -0.839745 -0.0303436 0.102947 -2.06944 7.33676 -10.4489 -0.0 0.0 -0.0 11.3984 23.9858 -22.2225 -2.60935 27.0751 -54.155 1.61183 38.6028 -0.564533 32.3595 0.0125793 4.07924 3.61498 1.96266 -24.1516 0.0 0.0 0.0 8.71526 -4.97821 -10.8992 9.07943 -0.478788 -1.30872 6.71623 -2.65315 -0.982169 -5.22746 0.0 0.0 -0.0 0.0 -0.0 -5.72488 2.84129 3.14359 -33.4306 0.102549 -5.05738 18.7796 6.22529 2.65078 -14.4084 0.0 0.0 0.0 0.0 0.0 
3010.62453529 678.076 -1674.92625101 -2.26996118283 55.9774531464 8.73905924388 0.670316 -0.329588 -1.1888 0.671067 -0.253279 -1.20736 0.676744 -0.0084553 -1.23361 0.674678 -0.20316 -1.2168 -21.2587 12.8235 13.2179 -21.2697 18.3831 17.829 -0.0 0.0 -0.0 9.71093 11.2234 18.1877 -36.7172 -37.1747 54.0119 0.359142 -10.088 0.0316991 -0.140888 -0.00498558 0.0173022 -1.84774 6.47837 -9.39404 -0.0 0.0 -0.0 11.2266 23.6762 -21.8622 -3.14633 25.8809 -53.9301 1.60923 38.5577 -0.562911 31.9763 -0.00105473 4.03221 3.78678 1.52442 -25.6087 0.0 0.0 0.0 8.19339 -4.21086 -9.49775 8.42199 -0.437189 -1.2166 10.7908 -1.04879 -1.54812 -4.76609 0.0 0.0 -0.0 0.0 -0.0 -5.00194 12.391 2.00068 -35.9791 0.230972 -5.42719 18.3651 -0.277408 2.54485 -14.6708 0.0 0.0 0.0 0.0 0.0 
